<svg width="70" height="70" fill="none" xmlns="http://www.w3.org/2000/svg"><g clip-path="url(#clip0)"><path d="M68.5 33.5a33.5 33.5 0 10-43.3 32c.3 0 .5-.1.8-.3.3-.1.5-.4.6-.8L35 37.7a4.2 4.2 0 10-1.8-8L22 18.5a1.4 1.4 0 00-2 2l11.2 11.2a4.1 4.1 0 001.2 5l-8 25.6a30.7 30.7 0 1123-.8l-.8-4.1a1.4 1.4 0 00-2.3-.8l-8.4 7.5a1.4 1.4 0 00.5 2.4L47.1 70a1.4 1.4 0 001.8-1.6l-.8-4a33.4 33.4 0 0020.4-30.8zM35 32a1.4 1.4 0 110 2.8 1.4 1.4 0 010-2.8zm4.6 32.5l4.8-4.3 1.3 6.2-6.1-2z" fill="#212121"/><path d="M33.6 7v2.8a1.4 1.4 0 102.8 0V7a1.4 1.4 0 00-2.8 0zM8.5 32a1.4 1.4 0 000 2.9h2.8a1.4 1.4 0 100-2.8H8.5zM61.5 34.9a1.4 1.4 0 100-2.8h-2.8a1.4 1.4 0 000 2.8h2.8z" fill="#2196F3"/></g><defs><clipPath id="clip0"><path fill="#fff" d="M0 0h70v70H0z"/></clipPath></defs></svg>