<svg aria-hidden="true" style="position:absolute;width:0;height:0" xmlns="http://www.w3.org/2000/svg" overflow="hidden"><defs><symbol viewBox="0 0 16 12" id="icon-envelope"><path d="M14.5 0h-13C.7 0 0 .7 0 1.5v9c0 .8.7 1.5 1.5 1.5h13c.8 0 1.5-.7 1.5-1.5v-9c0-.8-.7-1.5-1.5-1.5zm0 1h.2L8 6.8 1.3 1h13.2zm0 10h-13a.5.5 0 01-.5-.5V2.1l6.7 5.8a.5.5 0 00.6 0L15 2v8.4c0 .3-.2.5-.5.5z"/></symbol><symbol id="icon-facebook" viewBox="0 0 32 32"><path d="M21.3 5.3h3v-5C23.6.1 22 0 20 0c-4.2 0-7.1 2.6-7.1 7.5V12H8.2v5.7H13V32h5.7V17.7h4.5l.7-5.7h-5.2V8c0-1.6.4-2.7 2.7-2.7z"/></symbol><symbol id="icon-instagram" viewBox="0 0 32 32"><path d="M32 9.4c-.1-1.7-.4-2.9-.8-3.9s-1-2-1.8-2.8A7.9 7.9 0 0026.5.8c-1-.4-2.1-.6-3.8-.7A109.5 109.5 0 005.6.8c-1 .4-2 1-2.9 1.9C2 3.5 1.3 4.5 1 5.5.5 6.5.2 7.7.2 9.4a109.5 109.5 0 00.7 17c.4 1.2 1 2.1 1.8 3 .8.7 1.8 1.4 2.9 1.8 1 .4 2.2.6 3.9.7a117.2 117.2 0 0017-.7 8.2 8.2 0 004.7-4.7c.4-1 .7-2.2.8-3.9V16 9.4zm-3 13c0 1.6-.2 2.5-.5 3a5.3 5.3 0 01-3 3c-.6.3-1.4.6-3 .6a112.7 112.7 0 01-15.9-.5 5 5 0 01-1.8-1.2 5 5 0 01-1.2-1.9c-.2-.5-.5-1.4-.5-3a112.7 112.7 0 01.5-15.8c.3-.7.7-1.3 1.2-1.9a5 5 0 011.8-1.1c.6-.3 1.5-.5 3-.6a112.7 112.7 0 0115.9.6 5 5 0 011.8 1.1 5 5 0 011.2 1.9c.3.5.5 1.4.6 3a112.7 112.7 0 010 12.9z"/><path d="M16 7.8a8.2 8.2 0 100 16.4 8.2 8.2 0 000-16.4zm0 13.5a5.3 5.3 0 110-10.6 5.3 5.3 0 010 10.6zM26.5 7.5a2 2 0 11-3.8 0 2 2 0 013.8 0z"/></symbol><symbol id="icon-linkedin" viewBox="0 0 32 32"><path d="M32 32V20.3c0-5.8-1.2-10.2-8-10.2a7 7 0 00-6.2 3.4h-.1v-2.9h-6.4V32H18V21.4c0-2.8.6-5.5 4-5.5s3.5 3.2 3.5 5.7V32H32zM.5 10.6h6.7V32H.5V10.6zM3.8 0C1.8 0 0 1.7 0 3.8s1.7 4 3.8 4c2.2 0 3.9-1.8 3.9-4C7.7 1.8 6 0 3.8 0z"/></symbol><symbol id="icon-logo1" viewBox="0 0 29 32"><path d="M3.8 0l4.7 4.4h13v12.4l4.7 4.4V0H3.8z"/><path d="M0 4.2v20.6h21.8v-8.1L8.7 4.2H0zm17.6 17.6H3.4V8h1v12.9h13.2v1zM6.3 28.7l.5-1.1h.4L6.5 29v.9H6V29l-.8-1.4h.4l.6 1zm2.2.6h-.9l-.2.6H7l.9-2.3h.4l.8 2.3h-.4l-.2-.6zm-.8-.3h.7l-.3-1-.4 1zm2.4.2V29l.4-.4-.2-.2V28l.1-.4.5-.1.4.1.1.4v.2l-.3.3H11l.4.6v-.4h.4c0 .3 0 .5-.2.7l.4.4h-.5l-.1-.2-.6.2c-.2 0-.4 0-.5-.2a.6.6 0 01-.2-.5zm.7.4l.4-.1-.5-.6c-.2.1-.2.2-.2.3v.3h.3zm-.2-1.5l.2.4.1-.2h.1V28v-.2H10.7v.2zm4.1 1c0 .3 0 .4-.2.6a1 1 0 01-.6.2l-.5-.1c-.2-.1-.3-.2-.3-.4l-.2-.6v-.2c0-.2 0-.4.2-.5l.3-.4.5-.1c.2 0 .4 0 .6.2l.2.5h-.3l-.2-.3-.3-.1c-.2 0-.3 0-.4.2l-.2.5v.2c0 .3 0 .4.2.6l.4.2.3-.1.2-.4h.3zm2.2-.3l-.1.6-.3.4a1 1 0 01-.5 0 1 1 0 01-.5 0 .9.9 0 01-.4-.4v-.7-.6a.9.9 0 01.9-.5h.5l.3.5.1.6zm-.4-.1l-.1-.6a.5.5 0 00-.4-.2c-.2 0-.3 0-.4.2a1 1 0 00-.2.5v.2c0 .2 0 .4.2.6l.4.2.4-.2.1-.6v-.1z"/></symbol><symbol id="icon-logo2" viewBox="0 0 25 32"><path d="M10.4 1.8h.6c.8 0 1.5.2 2.2.4V.4A13 13 0 0010 0h-.2A18.3 18.3 0 00.5 2.5V20a19.5 19.5 0 018.4-2.4h.7v-1.8A21.2 21.2 0 002.9 17l-.7.2V3.6l.3-.1a17.4 17.4 0 017.3-1.7h.6z"/><path d="M14.8 3.7a15.8 15.8 0 01-3.4-.4v17.3c1.1.2 2.3.4 3.4.4a18.4 18.4 0 009.3-2.6V1.3a19.6 19.6 0 01-9.3 2.4zm7 .3l.6-.3v13.7l-.3.1a17 17 0 01-8.5 1.6h-.4V5h1.6a21 21 0 007-1.2zM1.7 26a1 1 0 00-.7-.3 1 1 0 00-.4 0 1 1 0 00-.5.6V29v.5l.2.3.4.2h.7a1 1 0 00.5-.6V28.8h-.5v.4l-.2.1-.2.1a.3.3 0 01-.3-.1v-2.5-.4h.1c.1 0 .1-.1.2 0 0-.1 0 0 .1 0h.2V27H2v-.3a1 1 0 00-.3-.7zM5.3 26A1 1 0 004 26a1 1 0 00-.2.3l-.1.4V29.4l.3.3.4.2a1 1 0 00.7 0c.1 0 .2 0 .3-.2l.2-.3.1-.4v-2.3-.4a1 1 0 00-.3-.4zM5 29a.4.4 0 01-.1.3.4.4 0 01-.6 0 .4.4 0 010-.3v-2.3a.4.4 0 010-.3.4.4 0 01.6 0 .4.4 0 01.1.3V29zM10 30v-4.3h-.5L8.7 28l-.8-2.3h-.6V30H8v-2.6l.6 1.8h.3l.6-1.8V30h.6zM13.5 26l-.3-.2h-1.4V30h.6v-1.7h.3l.6-.1.3-.3.2-.4a3 3 0 000-1l-.3-.5zm-.3 1.3v.2l-.2.2h-.6v-1.4h.6l.2.2v.8zM16.4 25.7h-.5l-1 4.3h.6l.2-1h.8l.2 1h.6l-1-4.3zm-.6 2.8l.3-1.6.3 1.6h-.6zM20.3 28.3l-1-2.6h-.5V30h.6v-2.6l1 2.6h.5v-4.3h-.6v2.6zM24 25.7l-.5 1.7-.5-1.7h-.7l.9 2.5V30h.6v-1.8l.8-2.5H24zM0 31.2h.3v.8h.2v-.8h.3V31H0v.2zM2.4 31l-.3 1h.2v-.2h.4l.1.2H3l-.3-1h-.3zm0 .6l.2-.4v.4h-.2zM4.9 31.6H5v.1l-.2.1h-.2l-.1-.3c0-.2 0-.3.3-.3H5c.1 0 0 0 0 .1h.3c0-.2-.2-.3-.4-.3l-.4.1-.1.2c-.1 0 0 .1 0 .2l.1.4a.5.5 0 00.4.1c.1 0 .3 0 .4-.2v-.3h-.4v.1zM7.3 31h-.2v1h.7v-.2h-.5V31zM9.4 31h-.2v1h.2v-1zM11.5 31.7L11 31h-.2v1h.2v-.7l.4.7h.2v-1h-.2v.7zM13.3 31.5h.5v-.1h-.5v-.2h.5V31h-.7v1h.8v-.2h-.6v-.3zM17.8 31.4h-.4V31h-.2v1h.2v-.4h.4v.4h.2v-1h-.2v.4zM19.6 31.5h.5v-.1h-.5v-.2h.6V31h-.7v1h.7v-.2h-.6v-.3zM22.2 31.5c.1 0 .2 0 .2-.2a.2.2 0 000-.2L22 31h-.4v1h.2v-.4h.2l.3.4h.2l-.1-.2-.2-.3zm-.2 0h-.2v-.3h.4v.1l-.2.1zM24 31.5h.6v-.1H24v-.2h.5V31h-.7v1h.7v-.2h-.5v-.3z"/></symbol><symbol id="icon-logo3" viewBox="0 0 31 32"><path d="M4.7 31.1l.2.2-.4.3-.6.1-.6-.1a1.2 1.2 0 01-.7-.7 1.6 1.6 0 010-1.2 1.3 1.3 0 01.8-.7 1.7 1.7 0 011.1 0l.4.2-.1.2H4.4a1 1 0 00-.3-.2 1.2 1.2 0 00-.7 0 1 1 0 00-.3.3 1 1 0 00-.2.3v.5.5l.2.3.3.2H4.1a.9.9 0 00.5-.2h.1zM9.1 30.3v.6l-.3.4-.5.3H7.1l-.4-.3-.3-.4v-1.2l.3-.4.4-.3h1.2c.2 0 .3.2.5.3l.2.4.1.6zm-.4 0v-.5a.9.9 0 00-.5-.6h-.9a.9.9 0 00-.5.6v1s0 .2.2.3l.3.2c.3.1.6.1.8 0a.9.9 0 00.6-.5v-.5zM12.2 30.8a3.5 3.5 0 01.1-.1l1-1.7h.4v2.7h-.3v-2-.1-.1l-1 1.7h-.2-.1l-1-1.7v2.1h-.4V29h.4l1 1.8zM15.8 30.6v1h-.3V29h1.3l.3.2.2.3v.7l-.2.3a1 1 0 01-.3.2h-1zm0-.3h.8l.2-.1.1-.2v-.2a.5.5 0 000-.4.8.8 0 00-.6-.2h-.5v1.1zM21 31.7h-.3-.1v-.1l-.3-.7H19l-.3.7h-.4l1.1-2.7h.4l1.2 2.8zm-2-1h1.2l-.5-1.2v-.2l-.1.1v.1l-.5 1.1zM22.6 29h.1l1.7 2v-2.1h.3v2.8h-.2-.1l-1.7-2.2v2.2h-.3v-2.8h.2zM27.5 30.6v1h-.3v-1L26 28.9h.4v.1l.7 1 .1.2v.1l.1-.1v-.1l.7-1.1h.5l-1 1.6zM12 24.3h.5c2.6-1 4.7-2.9 6.3-5.1s2.2-5 2.2-7.7L18 8.8c.6 2.9.4 5.9-.7 8.6s-3 5.1-5.4 6.9z"/><path d="M11 24.2c2.6-1.8 4.6-4.3 5.7-7.1s1.3-6 .5-9l-4-3.8A18 18 0 0111 24.2zM24.7 14.7a14 14 0 01-7 9.2c2-.6 3.7-1.5 5.2-2.8s2.7-3 3.4-4.8l-1.6-1.6z"/><path d="M24 14.3L21.8 12c0 2.5-.8 5-2.2 7.2s-3.4 3.9-5.7 5h1.6a14 14 0 008.7-10zM11.3 2.7L8.5 0C6 1 3.9 2.5 2.3 4.6S0 9.2 0 11.8c0 2.8 1 5.5 2.8 7.7s4.4 3.8 7.3 4.5a17.6 17.6 0 001.2-21.3zM30.5 13.9c0-3.4-1.4-6.6-3.9-9a13.5 13.5 0 00-14-2.8l17 16.3c.6-1.4 1-3 1-4.5z"/></symbol><symbol id="icon-logo4" viewBox="0 0 60 32"><path d="M9.2 9.5a3 3 0 00-3 3 3 3 0 003 3 3 3 0 003-3 3 3 0 00-3-3zM31.7 8.6c0-2.3-1-4.5-2.6-6S25.2 0 23 0c-2.3 0-4.6 1-6.2 2.5S14 6.3 14 8.6v12.6s17.6-2 17.6-12.6zM0 25.3c0 1.6.7 3 1.8 4.2s2.7 1.8 4.3 1.8c1.7 0 3.2-.7 4.4-1.8s1.8-2.6 1.8-4.2v-8.8S0 18 0 25.3zm6.1 1.6l-.9-.3c-.3-.2-.4-.4-.5-.7l-.1-1 .4-.7c.2-.2.5-.4.8-.4h1c.3 0 .5.4.7.6a1.5 1.5 0 01-.2 2 1.6 1.6 0 01-1.2.5zM18.7 25.9h-1.3v1.3h-.6V24h2v.5h-1.4v.9h1.3v.5zm3.1-.2c0 .3 0 .6-.2.8l-.4.5c-.2.2-.5.2-.7.2-.3 0-.5 0-.7-.2l-.5-.5-.2-.8v-.2c0-.3 0-.6.2-.8a1.3 1.3 0 011.2-.7c.2 0 .5 0 .7.2.2 0 .3.3.4.5.2.2.2.5.2.8v.2zm-.6-.2l-.2-.7c-.1-.1-.3-.3-.5-.3-.3 0-.4 0-.5.3-.2.1-.2.4-.2.7v.2c0 .3 0 .5.2.7s.2.3.5.3c.2 0 .4-.1.5-.3l.2-.7v-.2zm2.7.8v-.2l-.6-.2-.5-.3c-.4-.2-.5-.4-.5-.7l.1-.5.4-.3.6-.1h.6l.4.4.2.5h-.7l-.1-.3-.4-.1H23V25.2l.5.2.8.4.3.6c0 .3-.1.5-.3.7l-.9.2-.6-.1a1 1 0 01-.6-1h.6c0 .4.2.6.6.6h.4l.1-.4zm3.5-1.8h-1v2.7h-.6v-2.7h-1V24h2.6v.5zm2.3 1.3h-1.2v.9h1.4v.5h-2.1V24h2.1v.5h-1.4v.8h1.2v.5zm1.8.2H31v1.2h-.7V24h1.2c.4 0 .7 0 .9.3s.3.4.3.7c0 .2 0 .4-.2.5 0 .2-.2.3-.4.4l.7 1.3H32l-.6-1.2zm-.5-.5h.5l.4-.1.1-.4-.1-.3-.4-.2H31v1zm4 .6v1h-.7v-3H36l.5.4.1.6c0 .3-.1.5-.3.7-.2.2-.5.3-.9.3h-.6zm0-.6h.9l.1-.4v-.4l-.5-.2H35v1zm4 .3h-1.2v.9h1.5v.5h-2.1V24h2v.5h-1.4v.8h1.3v.5zm3.1-1.3h-1v2.7h-.6v-2.7h-1V24h2.6v.5zm2.3 1.3H43v.9h1.5v.5h-2.1V24h2.1v.5h-1.5v.8h1.3v.5zm1.8.2h-.6v1.2H45V24h1.2c.3 0 .6 0 .8.3s.3.4.3.7l-.1.5c0 .2-.2.3-.4.4l.7 1.3h-.7l-.6-1.2zm-.6-.5h.6l.4-.1V25v-.3l-.4-.2h-.6v1zm3.9.8l-.1-.2-.5-.2-.6-.3c-.3-.2-.5-.4-.5-.7 0-.2 0-.4.2-.5l.4-.3.6-.1h.6l.4.4.1.5h-.6l-.1-.3-.4-.1h-.4l-.1.4.1.2.5.2.8.4c.2.1.2.4.2.6 0 .3 0 .5-.3.7l-.8.2-.7-.1a1 1 0 01-.6-1h.7c0 .4.2.6.6.6h.4v-.4z"/></symbol><symbol id="icon-logo5" viewBox="0 0 40 32"><path d="M3 26.7a1 1 0 01-.1 1.6c-.3.2-.7.3-1 .3H0v-4.3h1.8c.4 0 .7 0 1 .2a1 1 0 01.4.9c0 .2 0 .4-.2.6a1 1 0 01-.6.4c.3 0 .5.1.7.3zM1 26.1h.7c.2 0 .4 0 .5-.2a.5.5 0 00.2-.4.5.5 0 00-.2-.4.8.8 0 00-.5-.2H1v1.2zm1.3 1.7a.5.5 0 00.2-.5.6.6 0 00-.2-.4.8.8 0 00-.5-.2H.9V28h.8l.5-.1zM6.8 28.6l-1-1.7h-.4v1.7h-.9v-4.3h1.7c.4 0 .8 0 1.1.3.3.3.4.6.4 1s0 .6-.3.8c-.2.3-.4.4-.7.5l1 1.7h-1zm-1.4-2.3H6c.5 0 .8-.2.8-.6a.6.6 0 00-.2-.5.8.8 0 00-.6-.2h-.7v1.3zM11.6 27.7H9.8l-.3 1h-.9l1.6-4.4h1l1.6 4.3h-1l-.2-.9zm-.3-.6l-.6-1.9-.6 1.9h1.2zM17.6 28.6h-1l-1.9-3v3H14v-4.3h.8l2 3v-3h.9v4.3zM22.5 27.6c-.2.3-.5.6-.8.7l-1.2.3H19v-4.3h1.5c.4 0 .8 0 1.2.2l.8.8a2.5 2.5 0 010 2.3zm-1-.1a1.6 1.6 0 000-2.1c-.3-.3-.7-.4-1-.4h-.7v2.8h.6c.4 0 .8 0 1.1-.3zM12.1 0s11.2 4.2 11 10.4v10.4s-11.2-4.3-11-10.4V0zM33 18.3c2.2-1.4 4.6-2.3 7.2-2.6v-3.2c-3 1.1-5.5 3.2-7.1 5.8z"/><path d="M31.8 19.3c1.7-3.5 4.7-6.2 8.4-7.5V2.4s-16 6-15.6 14.8V32l1.8-.8v-1.4c.4-4 2.3-7.8 5.4-10.5z"/><path d="M30.3 24.8c0-1 .2-2 .5-3a14.3 14.3 0 00-3.4 9l3.1-1.7c-.3-1.4-.4-2.8-.2-4.3zM30.9 24.9c-.1 1.3 0 2.6.2 3.9 4.4-2.7 9.3-6.7 9-11.6v-.4c-3 .3-6 1.7-8.2 3.9-.6 1.3-.9 2.7-1 4.2z"/></symbol><symbol id="icon-logo6" viewBox="0 0 62 32"><path d="M31.1 14.9c-.3-.5-.4-1-.4-1.5v-2c0-.7.2-1.2.4-1.5s.7-.5 1.4-.5c.6 0 1 .1 1.3.4.2.4.4.8.3 1.3v.5h-1V11v-.5l-.2-.3a.6.6 0 00-.4-.1l-.4.1-.2.3v3l.1.8.2.1h.7l.1-.4v-1h1.1v.5c0 .5 0 1-.3 1.3-.3.3-.7.5-1.3.5s-1.1-.2-1.4-.5zM35.6 14.9c-.3-.3-.4-.8-.4-1.4v-2.2c0-.6.1-1.1.4-1.4s.7-.5 1.4-.5c.6 0 1 .2 1.3.5.3.3.4.8.4 1.4v2.2c0 .6-.1 1-.4 1.4s-.7.5-1.3.5c-.7 0-1.1-.2-1.4-.5zm1.9-.5l.1-.7V11l-.1-.6-.2-.2h-.6l-.2.2-.2.6v2.7c0 .2 0 .5.2.7l.2.1h.3a.7.7 0 00.5-.1zM40 9.5h1.2l.9 4 .9-4h1l.2 5.8h-.8l-.1-4-.9 4h-.7l-.8-4-.1 4h-.9l.1-5.8zM45.5 9.5h1.8c1 0 1.6.5 1.6 1.6 0 1-.6 1.6-1.7 1.6h-.6v2.6h-1.1V9.5zM47 12a.8.8 0 00.7-.2l.1-.7v-.5l-.1-.2h-.2a1 1 0 00-.5-.2h-.4V12h.4zM50.5 9.5h1.2l1.2 5.8h-1l-.3-1.4h-1l-.3 1.4h-1l1.2-5.8zm1 3.8l-.4-2.5-.4 2.5h.8zM53.9 9.5h.8l1.5 3.3V9.5h.9v5.8h-.8l-1.5-3.5v3.5h-1V9.5zM59.3 13L58 9.6h1l.8 2.3.7-2.3h1L60.4 13v2.2h-1V13zM32.8 17.8v.3H32v2.4h-.3V18h-1v-.3h2.2zM35.7 20.5h-.3l-.1-.1-.3-.6h-1.3l-.2.6-.1.1H33l1-2.7h.5l1.1 2.7zm-1.9-1H35l-.4-1-.1-.3v.1l-.1.1-.4 1.1zM37.6 20.2H38.2l.1-.1v-.6h-.5v-.3h.9v1a1.7 1.7 0 01-1.1.3H37l-.4-.4a1.3 1.3 0 01-.4-1v-.5l.4-.4.4-.3H38a1.4 1.4 0 01.7.2l-.1.2h-.2l-.2-.1a1.3 1.3 0 00-1 0 1 1 0 00-.3.2l-.2.3v1a1 1 0 00.6.5h.4zM41.2 20.2h1.2v.3h-1.6v-2.7h.4v2.4zM43.7 20.5h-.4v-2.7h.4v2.7zM45 17.8h.1l1.7 2v-2h.3v2.7H46.8l-1.7-2v2h-.3v-2.7h.2zM49.9 17.8v.3h-1.3v.9h1v.3h-1v.9h1.3v.3h-1.7v-2.7h1.7zM10 1.4l16.9 4.5v16l-17-4.6v-16zM8.8 0v18l19 5.2v-18L9 0z"/><path d="M19.1 31.6L0 26.5V8.4l19.1 5.1v18.1z"/><path d="M9.2 1.2l16.7 4.4-7.1 6.8L2 7.9l7-6.7zM8.9 0L0 8.4l19.1 5.1L28 5.1 8.9 0zM20.2 30.6l7.8-7.4-7.8-2v9.4z"/></symbol><symbol viewBox="0 0 10 16" id="icon-smartphone"><path d="M8.5 0h-7C.7 0 0 .7 0 1.5v13c0 .8.7 1.5 1.5 1.5h7c.8 0 1.5-.7 1.5-1.5v-13C10 .7 9.3 0 8.5 0zm-7 1h7a.5.5 0 01.5.5V12H1V1.5a.5.5 0 01.5-.5zm7 14h-7a.5.5 0 01-.5-.5V13h8v1.5a.5.5 0 01-.5.5z"/><path d="M2.4 13.7a.4.4 0 010 .7.5.5 0 01-.8 0 .4.4 0 010-.7.5.5 0 01.8 0z"/></symbol><symbol id="icon-twitter" viewBox="0 0 32 32"><path d="M32 6c-1.2.6-2.5 1-3.8 1.1 1.4-.8 2.4-2 3-3.6-1.4.7-2.8 1.3-4.3 1.6a6.6 6.6 0 00-11.2 6A18.6 18.6 0 012.2 4.2a6.6 6.6 0 002 8.8c-1 0-2-.4-3-.8 0 3.2 2.4 5.9 5.3 6.5a6.5 6.5 0 01-3 0 6.6 6.6 0 006.2 4.6A13.2 13.2 0 010 26.1 18.5 18.5 0 0028.7 9.5c1.3-1 2.4-2 3.3-3.4z"/></symbol><symbol id="icon-close" viewBox="0 0 11 11"><path d="M11 1.1L9.9 0 5.5 4.4 1.1 0 0 1.1l4.4 4.4L0 9.9 1.1 11l4.4-4.4L9.9 11 11 9.9 6.6 5.5 11 1.1z"/></symbol></defs></svg>